<svg width="38" height="39" viewBox="0 0 38 39" fill="none" xmlns="http://www.w3.org/2000/svg">
<path d="M15.3542 0.75C7.03087 0.75 0.25 7.53087 0.25 15.8542C0.25 24.1775 7.03087 30.9583 15.3542 30.9583C18.9545 30.9583 22.2643 29.6865 24.8634 27.5729L35.0828 37.7922C35.2267 37.9422 35.3992 38.0619 35.59 38.1444C35.7808 38.2269 35.9862 38.2704 36.1941 38.2725C36.402 38.2747 36.6082 38.2353 36.8006 38.1567C36.9931 38.0781 37.1679 37.9619 37.3149 37.8149C37.4619 37.6679 37.5781 37.4931 37.6567 37.3006C37.7353 37.1082 37.7747 36.902 37.7725 36.6941C37.7704 36.4862 37.7269 36.2808 37.6444 36.09C37.5619 35.8992 37.4422 35.7267 37.2922 35.5828L27.0729 25.3634C29.1865 22.7643 30.4583 19.4545 30.4583 15.8542C30.4583 7.53087 23.6775 0.75 15.3542 0.75ZM15.3542 3.875C21.9886 3.875 27.3333 9.21975 27.3333 15.8542C27.3333 19.0861 26.0585 22.006 23.9906 24.157C23.8632 24.2507 23.7507 24.3632 23.657 24.4906C21.506 26.5585 18.5861 27.8333 15.3542 27.8333C8.71974 27.8333 3.375 22.4886 3.375 15.8542C3.375 9.21975 8.71974 3.875 15.3542 3.875Z" fill="#62D3A4"/>
</svg>
